<svg width="375" height="58" viewBox="0 0 375 58" fill="none" xmlns="http://www.w3.org/2000/svg">
<circle cx="27.001" cy="23.9837" r="6" fill="#FF8A65"/>
<circle cx="47" cy="29.9837" r="6" fill="#FFD54F"/>
<circle cx="8" cy="17.9837" r="6" fill="#4DB6AC"/>
<circle cx="68.001" cy="35.9837" r="6" fill="#F48FB1"/>
<circle cx="88.001" cy="39.9837" r="6" fill="#4DB6AC"/>
<circle cx="109.001" cy="43.9837" r="6" fill="#FF8A65"/>
<circle cx="129.001" cy="47.9837" r="6" fill="#FFD54F"/>
<circle cx="149.001" cy="49.9837" r="6" fill="#F48FB1"/>
<circle cx="170.001" cy="50.9837" r="6" fill="#4DB6AC"/>
<circle cx="190.001" cy="51.9837" r="6" fill="#FF8A65"/>
<circle cx="210.001" cy="50.9837" r="6" fill="#FFD54F"/>
<circle cx="231.001" cy="49.9837" r="6" fill="#F48FB1"/>
<circle cx="251.001" cy="46.9837" r="6" fill="#4DB6AC"/>
<circle cx="272.001" cy="43.9837" r="6" fill="#FF8A65"/>
<circle cx="294.001" cy="37.9837" r="6" fill="#FFD54F"/>
<circle cx="313.001" cy="33.9837" r="6" fill="#F48FB1"/>
<circle cx="333.001" cy="29.9837" r="6" fill="#4DB6AC"/>
<circle cx="353.001" cy="23.9837" r="6" fill="#FF8A65"/>
<circle cx="372.001" cy="17.9837" r="6" fill="#FFD54F"/>
<path d="M-34 0.983704C3 7.74427 98 45.9837 189.5 45.9837C281 45.9837 376.333 9.43441 410 0.983704" stroke="#424242" stroke-width="2"/>
</svg>
